<?xml version="1.0" encoding="utf-8"?>
<!-- Generator: Adobe Illustrator 15.0.2, SVG Export Plug-In . SVG Version: 6.00 Build 0)  -->
<!DOCTYPE svg PUBLIC "-//W3C//DTD SVG 1.1//EN" "http://www.w3.org/Graphics/SVG/1.1/DTD/svg11.dtd">
<svg version="1.1" xmlns="http://www.w3.org/2000/svg" xmlns:xlink="http://www.w3.org/1999/xlink" x="0px" y="0px" width="504px"
	 height="360px" viewBox="0 0 504 360" enable-background="new 0 0 504 360" xml:space="preserve">
<g id="Layer_1" display="none">
	
		<rect x="-301.058" y="5.428" transform="matrix(-0.7071 -0.7071 0.7071 -0.7071 -522.3933 -78.3997)" display="inline" fill="#FFFFFF" width="47.249" height="127.124"/>
	<path display="inline" fill="#FFFFFF" d="M-320.625-33l-59.625,59.625c-9,7.875-9,22.5,0,30.375L-351,86.25l90-90L-290.25-33
		C-298.125-42-312.75-42-320.625-33z"/>
	<g display="inline">
		<path fill="#FFFFFF" d="M-106.875,300h59.625v-59.625C-79.875,240.375-106.875,267.375-106.875,300z"/>
		<path fill="#FFFFFF" d="M-47.25,224.625V210L-216,41.25l-90,90L-137.25,300h14.625C-122.625,258.375-88.875,224.625-47.25,224.625
			z"/>
	</g>
</g>
<g id="Layer_2">
	<path fill="#F5F5F5" d="M264.78,278.559c0,0,33.932-0.066,47.089-34.426c0,0-93.865-42.522-85.934-109.513
		c0,0-3.348-53.708,73.296-17.476c0,0,56.516,29.812,41.8,115.414c0,0-6.952,68.302-76.168,69.7
		C264.863,302.258,264.49,280.562,264.78,278.559z"/>
	<path fill="#F5F5F5" d="M214.9,279.271c0,0-33.781,3.194-50.177-29.744c0,0,89.347-51.341,75.019-117.259
		c0,0-1.827-53.78-74.636-10.356c0,0-53.391,35.102-30.521,118.896c0,0,13.479,67.318,82.509,62.062
		C217.093,302.868,215.381,281.238,214.9,279.271z"/>
</g>
</svg>
